<svg xmlns="http://www.w3.org/2000/svg" version="1.1" xmlns:xlink="http://www.w3.org/1999/xlink" xmlns:svgjs="http://svgjs.dev/svgjs" viewBox="0 0 800 800"><defs><linearGradient x1="50%" y1="0%" x2="50%" y2="100%" id="ccchaos-grad"><stop stop-color="hsl(206, 75%, 49%)" stop-opacity="1" offset="0%"></stop><stop stop-color="hsl(331, 90%, 56%)" stop-opacity="1" offset="100%"></stop></linearGradient></defs><g stroke-width="2" stroke="url(#ccchaos-grad)" fill="none" stroke-linecap="round"><path d="M407.61 200.02C414.01 201.07 420.39 203.25 426.76 206.42 433.12 210.19 439.46 214.66 445.76 219.64 452.07 224.72 458.33 229.97 464.53 235.2 470.73 240.09 476.86 244.73 482.9 249.03 488.93 252.72 494.86 255.99 500.67 258.85 506.45 261.07 512.09 262.95 517.57 264.57 528.39 266.41 538.42 268.2 547.41 270.64 556.04 272.96 563.43 276.92 569.37 282.66 573.33 287.57 579.04 299.85 580.75 307.04 581.85 314.75 581.88 331.5 580.86 340.32 580.02 346.29 578.85 352.33 577.35 358.4 575.88 364.49 574.15 370.57 572.17 376.64 570.29 382.7 568.26 388.59 566.1 394.3 564.11 400.02 562.02 405.58 559.85 411.01 556.84 419.16 550.77 435.28 547.69 443.47 545.78 449.13 543.78 454.94 541.67 460.93 539.69 467.2 537.57 473.74 535.32 480.56 531.07 495.14 526.07 510.99 520.25 527.72 514.54 544.72 507.84 561.14 500.19 575.48 494.3 584.24 481.27 594.66 474.14 595.69 469.3 594.83 464.23 592.64 458.95 589.21 453.66 585.13 448.16 580.22 442.47 574.75 436.76 569.41 430.88 564.12 424.82 559.21 418.76 555.32 412.54 552.36 406.17 550.52 399.79 550.26 393.43 551.26 387.09 553.41 380.75 556.86 374.45 561.05 368.2 565.69 361.95 570.87 355.75 575.9 349.63 580.49 343.51 584.78 337.47 588.13 331.52 590.37 325.59 591.73 319.74 591.76 314.02 590.46 308.31 588.12 302.72 584.51 297.27 579.77 286.44 567.83 276.21 552.9 266.76 536.49 257.46 519.59 249.01 502.94 241.59 487.21 237.97 479.68 234.62 472.42 231.57 465.43 228.58 458.69 225.89 452.17 223.53 445.84 221.24 439.7 219.27 433.69 217.65 427.76 216.11 421.94 214.9 416.15 214.06 410.35 213.3 404.6 212.89 398.8 212.85 392.92 212.87 387.06 213.26 381.1 214.01 375.05 214.82 369.01 215.96 363.01 217.42 357.1 218.91 351.2 220.69 345.4 222.75 339.74 225.97 331.4 233.64 315.92 238.02 308.96 242.56 302.52 252.53 291.77 257.94 287.54 265.09 282.49 272.94 278.93 281.39 276.58 289.63 273.6 298.52 270.72 307.99 267.28 312.67 264.74 317.5 261.87 322.48 258.61 327.43 254.73 332.54 250.47 337.8 245.86 343.03 240.76 348.42 235.47 353.95 230.1 359.47 224.59 365.15 219.3 370.97 214.41 376.78 209.86 382.75 206.03 388.85 203.1 394.96 200.93 401.21 199.87 407.6 200.02" stroke-dasharray="9 7" transform="rotate(0, 400, 400)" opacity="1.00"></path><path d="M409.02 206.76C415.19 207.77 421.34 209.84 427.47 212.86 433.6 216.46 439.7 220.75 445.75 225.54 457.86 235.39 469.78 245.48 481.32 254.8 492.82 261.96 503.88 267.64 514.28 272.03 524.53 274.47 533.98 276.64 542.4 279.18 550.49 281.32 557.4 284.78 562.9 289.78 567.94 295.26 571.49 302.42 573.44 310.99 574.96 320.04 574.97 330.18 573.49 341.04 572.7 346.53 571.6 352.15 570.18 357.85 568.8 363.56 567.16 369.34 565.28 375.15 563.49 380.97 561.55 386.68 559.48 392.3 557.56 397.92 555.53 403.46 553.41 408.93 549.71 420.02 545.67 431.12 541.36 442.47 537.67 454.52 533.54 467.37 528.92 481.21 524.67 496 519.71 511.77 514.01 528 508.42 544.06 501.93 559.12 494.55 571.8 487.14 581.64 478.8 587.16 469.58 587.54 460.31 584.22 450.18 576.68 439.31 566.35 433.86 561.34 428.23 556.41 422.43 551.84 416.63 548.25 410.67 545.5 404.57 543.78 398.46 543.5 392.36 544.37 386.28 546.28 380.21 549.41 374.16 553.23 368.16 557.49 356.17 567.45 344.38 576.07 332.95 581.56 321.56 584.15 310.55 581.82 300.08 574.91 289.71 564.77 279.91 551.49 270.87 536.4 261.99 520.46 253.94 504.33 246.87 488.77 240.04 473.81 234.27 459.74 229.72 446.56 225.45 434 222.44 421.93 220.81 410.18 219.91 401.49 219.95 384.12 220.9 375.41 222.26 366.74 226.56 350.08 229.43 342.17 233.43 331.85 238.44 322.47 244.29 314.32 250 306.54 256.51 300.2 263.69 295.41 270.68 290.81 278.34 287.43 286.57 284.95 294.62 281.63 303.28 278.18 312.5 274.03 321.57 267.76 331.25 260.1 341.47 251.15 351.6 240.58 362.34 229.9 373.62 220.31 379.24 215.98 385.01 212.36 390.91 209.61 396.81 207.57 402.84 206.6 409.01 206.76" stroke-dasharray="10 7" transform="rotate(3.52, 400, 400)" opacity="0.96"></path><path d="M410.3 213.5C422.18 216.18 433.98 222.53 445.59 231.42 457.19 240.98 468.58 250.96 479.57 260.38 490.52 267.94 501.01 274.17 510.84 279.18 520.5 282.26 529.39 284.91 537.27 287.68 544.84 289.83 551.28 293.01 556.38 297.47 561.06 302.2 564.34 308.44 566.12 316.06 567.54 324.04 567.54 333.18 566.14 343.17 564.65 353.3 562.04 364.05 558.39 375.21 555.11 386.38 551.24 397.45 546.99 408.44 543.35 419.6 539.36 431 535.08 442.82 531.37 455.22 527.22 468.44 522.62 482.51 518.36 497.25 513.45 512.64 507.86 528.09 502.39 543 496.09 556.57 488.97 567.57 481.85 575.76 473.84 579.83 465.03 579.17 456.17 575.34 446.49 567.83 436.1 557.99 425.69 549.08 414.59 541.52 402.91 537.04 391.23 537.79 379.56 542.32 368.06 549.36 356.58 558.64 345.29 566.92 334.34 572.6 323.43 575.91 312.9 574.81 302.89 569.46 292.97 561.08 283.62 549.49 275 535.86 266.54 521.1 258.88 505.78 252.17 490.67 245.69 475.85 240.22 461.71 235.93 448.39 231.9 435.55 229.07 423.29 227.56 411.51 226.31 399.9 226.35 388.49 227.79 377.29 229.39 366.09 232.21 355.59 236.1 345.95 239.99 336.4 244.85 327.9 250.52 320.64 256.09 313.61 262.42 307.93 269.4 303.61 276.2 299.26 283.66 295.88 291.67 293.11 299.51 289.34 307.95 285.27 316.9 280.42 325.73 273.57 335.12 265.47 345.03 256.29 354.86 245.79 365.26 235.4 376.15 226.22 387.01 218.48 398.42 213.95 410.29 213.5" stroke-dasharray="0 8" transform="rotate(7.04, 400, 400)" opacity="0.92"></path><path d="M411.44 220.24C422.85 222.78 434.16 228.8 445.26 237.29 456.35 246.53 467.2 256.33 477.64 265.8 488.03 273.67 497.95 280.41 507.21 285.99 516.32 289.73 524.65 292.93 532 296.05 539.08 298.38 545.06 301.46 549.78 305.59 554.13 309.77 557.17 315.31 558.8 322.14 560.11 329.22 560.11 337.47 558.79 346.69 557.41 355.99 554.95 366.08 551.5 376.81 548.39 387.54 544.68 398.42 540.57 409.44 537 420.63 533.07 432.23 528.84 444.33 525.12 456.9 520.98 470.24 516.39 484.26 512.15 498.65 507.29 513.38 501.8 527.82 496.45 541.43 490.33 553.45 483.46 562.77 476.6 569.4 468.93 572.14 460.49 570.6 452.02 566.38 442.79 558.99 432.88 549.67 422.94 541.41 412.35 534.46 401.21 530.3 390.06 530.91 378.92 534.93 367.93 541.29 356.96 549.87 346.17 557.76 335.71 563.5 325.3 567.37 315.25 567.34 305.7 563.42 296.25 556.71 287.35 546.82 279.16 534.73 271.12 521.33 263.85 507.04 257.5 492.64 251.36 478.26 246.2 464.32 242.15 451.08 238.36 438.18 235.71 425.87 234.32 414.15 233.17 402.58 233.26 391.37 234.68 380.58 236.25 369.79 238.99 359.88 242.76 350.95 246.53 342.08 251.24 334.29 256.74 327.74 262.13 321.28 268.28 316.05 275.05 311.98 281.68 307.7 288.92 304.14 296.71 300.95 304.33 296.66 312.53 291.95 321.22 286.43 329.79 279.06 338.9 270.6 348.49 261.29 358.01 250.93 368.05 240.87 378.56 232.12 389.04 224.84 400.02 220.62 411.43 220.24" stroke-dasharray="9 8" transform="rotate(10.559999999999999, 400, 400)" opacity="0.89"></path><path d="M412.41 226.98C423.35 229.39 434.17 235.08 444.75 243.15 455.32 252.03 465.63 261.61 475.53 271.05 485.37 279.16 494.72 286.32 503.42 292.43 511.97 296.83 519.77 300.6 526.62 304.16 533.22 306.81 538.77 309.97 543.14 313.95 547.17 317.81 549.98 322.84 551.47 329.06 552.69 335.4 552.69 342.91 551.45 351.45 550.17 360.04 547.87 369.54 544.62 379.85 541.66 390.16 538.11 400.84 534.15 411.82 530.67 422.94 526.81 434.59 522.64 446.78 518.93 459.3 514.8 472.5 510.26 486.18 506.03 499.98 501.24 513.83 495.86 527.06 490.62 539.27 484.68 549.69 478.05 557.38 471.44 562.56 464.08 564.13 456.01 561.85 447.92 557.36 439.11 550.17 429.66 541.4 420.2 533.79 410.11 527.41 399.49 523.56 388.87 524.04 378.25 527.58 367.77 533.28 357.33 541.17 347.05 548.61 337.08 554.3 327.17 558.58 317.6 559.44 308.53 556.8 299.55 551.65 291.1 543.42 283.34 532.91 275.72 520.99 268.84 507.92 262.85 494.44 257.06 480.76 252.2 467.28 248.4 454.34 244.84 441.6 242.37 429.41 241.09 417.86 240.04 406.43 240.17 395.48 241.56 385.08 243.1 374.69 245.77 365.3 249.4 356.96 253.05 348.64 257.61 341.43 262.92 335.37 268.15 329.32 274.1 324.34 280.66 320.33 287.08 315.95 294.12 312.08 301.66 308.37 309.07 303.53 317.01 298.19 325.43 292.04 333.74 284.24 342.55 275.51 351.82 266.15 361.02 256.01 370.71 246.32 380.83 238.03 390.92 231.19 401.47 227.28 412.41 226.98" stroke-dasharray="8 4" transform="rotate(14.08, 400, 400)" opacity="0.85"></path><path d="M413.21 233.72C423.67 236 433.99 241.35 444.05 249 454.1 257.49 463.87 266.8 473.22 276.14 482.5 284.4 491.3 291.9 499.46 298.49 507.47 303.5 514.74 307.87 521.11 311.92 529.83 316.69 541.47 328.46 544.14 336.59 545.28 342.4 545.28 349.31 544.12 357.28 542.94 365.27 540.79 374.24 537.73 384.15 534.94 394.05 531.55 404.47 527.73 415.31 524.36 426.27 520.58 437.81 516.48 449.87 512.8 462.15 508.7 474.96 504.21 488.05 500.01 501.03 495.28 513.79 490.02 525.68 484.9 536.42 479.13 545.26 472.73 551.41 466.36 555.26 459.3 555.82 451.59 552.95 443.86 548.3 435.47 541.37 426.48 533.18 417.47 526.2 407.87 520.38 397.78 516.82 387.68 517.18 377.59 520.27 367.63 525.34 357.7 532.53 347.93 539.47 338.47 545.03 329.06 549.56 319.99 551.15 311.39 549.62 302.88 545.89 294.89 539.24 287.55 530.3 280.36 519.92 273.88 508.2 268.24 495.83 262.78 483.07 258.22 470.28 254.67 457.85 251.34 445.49 249.04 433.61 247.88 422.34 246.92 411.16 247.08 400.52 248.45 390.51 249.95 380.51 252.53 371.57 256.04 363.71 259.56 355.84 263.95 349.04 269.07 343.31 274.13 337.49 279.88 332.59 286.21 328.46 292.43 323.85 299.24 319.57 306.53 315.3 313.71 309.9 321.4 303.95 329.53 297.26 337.57 289.11 346.09 280.22 355.02 270.89 363.89 261.03 373.22 251.76 382.94 243.95 392.63 237.56 402.75 233.95 413.21 233.72" stroke-dasharray="6 6" transform="rotate(17.6, 400, 400)" opacity="0.81"></path><path d="M413.82 240.46C423.8 242.6 433.61 247.63 443.15 254.84 452.68 262.93 461.91 271.92 470.71 281.08 479.45 289.42 487.71 297.17 495.32 304.15 502.81 309.72 509.58 314.67 515.49 319.23 523.58 324.67 534.35 336.72 536.8 344.51 537.87 349.94 537.88 356.41 536.8 363.91 535.72 371.4 533.72 379.91 530.84 389.42 528.21 398.94 524.98 409.04 521.32 419.64 518.05 430.32 514.37 441.59 510.35 453.31 506.72 465.13 502.67 477.34 498.25 489.6 494.09 501.59 489.44 513.12 484.3 523.58 479.29 532.83 473.7 540.15 467.52 544.86 461.39 547.54 454.62 547.23 447.25 543.92 439.88 539.21 431.89 532.61 423.34 525.01 414.78 518.64 405.67 513.36 396.1 510.08 386.52 510.33 376.95 513 367.51 517.46 358.1 523.96 348.85 530.37 339.89 535.7 330.99 540.36 322.41 542.52 314.29 541.92 306.25 539.46 298.72 534.26 291.81 526.84 285.04 518.02 278.95 507.72 273.66 496.58 268.54 484.92 264.27 473.02 260.97 461.28 257.85 449.51 255.72 438.09 254.67 427.23 253.8 416.42 254 406.14 255.34 396.53 256.8 386.91 259.29 378.37 262.66 370.88 266.05 363.35 270.28 356.83 275.2 351.27 280.07 345.53 285.61 340.56 291.72 336.18 297.72 331.26 304.29 326.51 311.32 321.65 318.26 315.71 325.68 309.23 333.52 302.08 341.28 293.69 349.48 284.73 358.07 275.53 366.61 266.01 375.57 257.2 384.88 249.87 394.17 243.94 403.85 240.63 413.82 240.46" stroke-dasharray="11 8" transform="rotate(21.119999999999997, 400, 400)" opacity="0.77"></path><path d="M414.24 247.2C423.73 249.21 433.03 253.91 442.05 260.68 451.06 268.34 459.75 276.96 468.01 285.89 476.22 294.2 483.94 302.11 491.03 309.4 498.01 315.46 504.3 320.94 509.77 326 517.26 332.17 527.21 344.86 529.47 352.51 530.48 357.74 530.49 363.9 529.5 371.03 528.51 378.14 526.65 386.24 523.95 395.36 521.47 404.48 518.41 414.22 514.91 424.46 511.75 434.76 508.18 445.58 504.27 456.77 500.69 467.96 496.72 479.36 492.37 490.61 488.28 501.47 483.72 511.68 478.7 520.68 473.82 528.48 468.39 534.35 462.44 537.77 456.54 539.42 450.05 538.4 443.02 534.79 435.99 530.13 428.39 523.89 420.28 516.89 412.16 511.12 403.53 506.35 394.47 503.34 385.41 503.49 376.35 505.77 367.44 509.66 358.54 515.48 349.81 521.33 341.36 526.37 332.96 531.03 324.88 533.58 317.23 533.75 309.67 532.37 302.59 528.5 296.12 522.5 289.76 515.19 284.06 506.34 279.12 496.5 274.33 486.07 270.35 475.2 267.28 464.3 264.39 453.29 262.42 442.5 261.47 432.15 260.69 421.83 260.92 411.98 262.23 402.76 263.65 393.54 266.04 385.34 269.27 378.13 272.53 370.86 276.58 364.49 281.3 358.96 285.98 353.2 291.3 348.05 297.16 343.33 302.95 338.04 309.26 332.8 316.03 327.37 322.71 320.95 329.85 314.02 337.39 306.51 344.85 298 352.74 289.07 360.97 280.08 369.17 270.96 377.75 262.64 386.65 255.81 395.53 250.33 404.76 247.3 414.24 247.2" stroke-dasharray="6 10" transform="rotate(24.64, 400, 400)" opacity="0.73"></path><path d="M414.46 253.94C423.45 255.82 432.24 260.19 440.74 266.51 449.22 273.72 457.38 281.94 465.11 290.57 472.79 298.78 479.99 306.75 486.58 314.24 493.07 320.69 498.9 326.64 503.95 332.17 510.87 339.09 520.05 352.65 522.15 360.34 523.09 365.49 523.11 371.46 522.2 378.31 521.3 385.11 519.58 392.86 517.07 401.58 514.74 410.3 511.84 419.62 508.51 429.39 505.47 439.19 502.01 449.43 498.22 459.92 494.72 470.31 490.82 480.76 486.58 490.88 482.56 500.52 478.1 509.37 473.22 516.92 468.47 523.34 463.22 527.88 457.49 530.16 451.82 530.94 445.61 529.37 438.91 525.58 432.22 521.05 425 515.23 417.32 508.83 409.63 503.64 401.48 499.35 392.92 496.6 384.37 496.66 375.83 498.58 367.44 501.93 359.06 507.08 350.84 512.36 342.9 517.04 335 521.58 327.41 524.39 320.25 525.15 313.16 524.68 306.53 521.97 300.48 517.26 294.54 511.39 289.22 503.95 284.62 495.43 280.16 486.29 276.47 476.56 273.63 466.62 270.95 456.51 269.14 446.46 268.29 436.73 267.59 426.99 267.84 417.64 269.11 408.82 270.49 400.01 272.78 392.12 275.87 385.11 278.99 378.04 282.86 371.74 287.37 366.13 291.85 360.27 296.95 354.87 302.56 349.76 308.11 344.09 314.17 338.37 320.65 332.43 327.07 325.61 333.92 318.33 341.14 310.59 348.3 302.04 355.85 293.25 363.73 284.56 371.57 275.89 379.76 268.09 388.24 261.77 396.7 256.73 405.47 253.99 414.46 253.94" stroke-dasharray="10 9" transform="rotate(28.16, 400, 400)" opacity="0.70"></path><path d="M414.48 260.68C422.97 262.43 431.25 266.48 439.22 272.35 447.19 279.1 454.82 286.87 462.03 295.15 469.19 303.17 475.88 311.1 481.99 318.69 488 325.43 493.39 331.75 498.04 337.69 504.43 345.32 512.89 359.86 514.83 367.71 515.72 372.89 515.75 378.76 514.92 385.39 514.11 391.97 512.52 399.39 510.18 407.7 508 416.01 505.27 424.85 502.1 434.06 499.19 443.27 495.87 452.81 492.2 462.44 488.79 471.94 485 481.32 480.87 490.23 476.94 498.63 472.59 506.13 467.86 512.29 460.72 519.1 444.28 521.17 434.94 516.34 428.58 512 421.74 506.64 414.48 500.83 407.22 496.2 399.53 492.36 391.47 489.86 383.42 489.84 375.4 491.43 367.52 494.27 359.65 498.78 351.95 503.48 344.51 507.75 337.12 512.09 330.02 515 323.33 516.2 316.71 516.45 310.53 514.71 304.9 511.16 299.37 506.59 294.42 500.5 290.16 493.27 286.03 485.44 282.61 476.89 279.99 467.98 277.52 458.86 275.87 449.65 275.12 440.61 274.5 431.54 274.77 422.73 276 414.34 277.33 405.94 279.52 398.34 282.46 391.49 285.44 384.56 289.12 378.27 293.42 372.52 297.69 366.53 302.56 360.85 307.91 355.35 313.21 349.32 319 343.18 325.19 336.81 331.33 329.69 337.88 322.18 344.77 314.32 351.61 305.87 358.82 297.31 366.33 288.99 373.8 280.82 381.6 273.56 389.64 267.74 397.68 263.14 405.98 260.67 414.48 260.68" stroke-dasharray="10 10" transform="rotate(31.68, 400, 400)" opacity="0.66"></path><path d="M414.29 267.42C422.28 269.04 430.04 272.77 437.5 278.2 444.95 284.47 452.06 291.77 458.76 299.63 465.41 307.39 471.61 315.18 477.25 322.77 482.81 329.69 487.77 336.28 492.04 342.53 496.2 348.08 499.65 353.48 502.31 358.85 505.72 366.32 508.38 382.57 507.65 391.95 506.92 398.34 505.46 405.47 503.29 413.36 501.26 421.24 498.7 429.54 495.7 438.11 492.93 446.65 489.74 455.39 486.21 464.09 482.91 472.61 479.24 480.87 475.23 488.54 471.41 495.7 467.2 501.9 462.63 506.78 455.74 511.92 439.99 511.98 431.12 507.07 425.08 503 418.62 498.11 411.77 492.89 404.93 488.79 397.7 485.39 390.15 483.12 382.59 483.03 375.08 484.31 367.71 486.68 360.35 490.58 353.16 494.7 346.22 498.53 339.33 502.57 332.72 505.47 326.5 506.95 320.35 507.73 314.61 506.8 309.39 504.23 304.27 500.81 299.69 495.95 295.76 489.95 291.94 483.39 288.79 476.02 286.39 468.17 284.12 460.08 282.62 451.77 281.96 443.47 281.41 435.13 281.7 426.91 282.89 418.96 284.16 411 286.25 403.68 289.04 396.96 291.87 390.17 295.37 383.86 299.44 377.96 303.5 371.82 308.12 365.87 313.21 360.02 318.25 353.69 323.76 347.21 329.65 340.52 335.49 333.21 341.73 325.6 348.28 317.76 354.8 309.5 361.65 301.26 368.77 293.38 375.87 285.74 383.26 279.04 390.87 273.74 398.47 269.57 406.3 267.36 414.29 267.42" stroke-dasharray="1 1" transform="rotate(35.2, 400, 400)" opacity="0.62"></path><path d="M413.9 274.16C421.38 275.66 428.63 279.07 435.58 284.06 442.51 289.84 449.12 296.63 455.31 304.04 461.47 311.46 467.19 319.02 472.38 326.5 477.5 333.47 482.06 340.22 485.98 346.68 489.8 352.56 492.96 358.29 495.4 363.93 498.55 371.84 501.03 388.43 500.39 397.64 499.74 403.89 498.41 410.72 496.4 418.17 494.52 425.61 492.12 433.34 489.3 441.2 486.67 449.02 483.63 456.9 480.26 464.61 477.07 472.12 473.53 479.26 469.68 485.71 463.95 494.19 450.89 504.11 443.53 504.71 438.55 503.82 433.18 501.46 427.45 497.81 421.74 494.06 415.65 489.65 409.22 485.02 402.79 481.42 396.02 478.43 388.95 476.38 381.89 476.23 374.88 477.24 368.02 479.16 361.17 482.48 354.48 486.03 348.05 489.39 338.58 494.47 321.42 498.46 313.96 496.55 309.23 494.11 305.01 490.34 301.4 485.46 297.89 480.07 295 473.84 292.82 467.03 290.75 459.99 289.39 452.6 288.81 445.07 288.33 437.49 288.64 429.89 289.78 422.4 291 414.91 292.97 407.87 295.61 401.28 298.28 394.63 301.59 388.31 305.44 382.27 309.28 376.02 313.65 369.86 318.46 363.72 323.24 357.18 328.45 350.48 334.03 343.59 339.57 336.22 345.48 328.63 351.68 320.94 357.85 312.97 364.34 305.14 371.06 297.76 377.77 290.69 384.74 284.56 391.9 279.77 399.06 276.01 406.42 274.06 413.9 274.16" stroke-dasharray="1 5" transform="rotate(38.72, 400, 400)" opacity="0.58"></path><path d="M413.31 280.9C420.29 282.27 427.03 285.38 433.47 289.92 439.89 295.21 446 301.49 451.71 308.4 457.38 315.41 462.64 322.66 467.4 329.91 472.1 336.83 476.27 343.6 479.85 350.16 483.36 356.25 486.25 362.2 488.48 368.05 491.38 376.32 493.71 393.19 493.15 402.23 492.57 408.32 491.36 414.86 489.51 421.85 487.78 428.84 485.54 435.96 482.9 443.08 480.41 450.16 477.54 457.15 474.33 463.86 471.28 470.38 467.89 476.42 464.2 481.73 458.69 488.57 446.19 495.77 439.18 495.55 434.45 494.4 429.37 492.03 423.97 488.59 418.58 485.2 412.86 481.28 406.84 477.21 400.82 474.09 394.49 471.47 387.92 469.64 381.34 469.44 374.83 470.2 368.47 471.72 362.12 474.5 355.93 477.49 349.98 480.38 341.25 484.94 325.44 489.28 318.6 488.22 312.33 485.16 302.57 472.93 299.28 464.51 297.39 458.48 296.17 451.99 295.67 445.24 295.26 438.43 295.57 431.46 296.66 424.45 297.82 417.43 299.69 410.7 302.17 404.27 304.69 397.78 307.79 391.49 311.41 385.37 315.02 379.06 319.13 372.76 323.66 366.44 328.16 359.8 333.07 353 338.32 346.06 343.55 338.77 349.12 331.33 354.96 323.9 360.78 316.33 366.88 308.98 373.2 302.14 379.51 295.67 386.05 290.11 392.76 285.82 399.46 282.48 406.34 280.76 413.31 280.9" stroke-dasharray="7 7" transform="rotate(42.239999999999995, 400, 400)" opacity="0.54"></path><path d="M412.54 287.65C419.01 288.89 425.24 291.7 431.17 295.81 437.1 300.61 442.71 306.34 447.94 312.72 458.33 325.8 467.08 339.65 473.67 352.99 480.02 364.96 484.12 376.64 485.64 388.24 486.35 393.81 486.45 399.56 485.91 405.53 485.41 411.44 484.31 417.66 482.63 424.17 481.03 430.68 478.96 437.18 476.5 443.55 474.17 449.88 471.46 456 468.42 461.74 462.78 472.68 455.75 481.06 447.67 485.39 439.91 487.8 430.81 485.65 420.65 479.43 415.6 476.42 410.24 473 404.63 469.47 399.02 466.8 393.15 464.53 387.05 462.9 380.96 462.66 374.94 463.2 369.08 464.36 363.22 466.62 357.52 469.09 352.06 471.49 341.21 477.41 331.43 480.36 323.32 479.33 315.45 476.87 309.42 470.26 305.76 460.6 304.06 455.5 302.97 449.88 302.54 443.88 302.2 437.82 302.51 431.49 303.55 424.97 304.65 418.46 306.4 412.06 308.72 405.83 311.07 399.55 313.98 393.35 317.36 387.22 324.11 374.53 332.71 361.42 342.55 348 352.32 333.67 363.38 319.31 375.2 306.56 381.09 300.69 387.2 295.71 393.44 291.91 399.69 288.95 406.08 287.47 412.54 287.65" stroke-dasharray="9 0" transform="rotate(45.760000000000005, 400, 400)" opacity="0.51"></path><path d="M411.59 294.39C423.51 297.51 434.48 305.72 444.05 317.03 453.53 329.16 461.48 342.32 467.45 355.25 473.23 367.22 476.98 378.97 478.38 390.45 479.71 401.42 478.87 412.96 475.74 424.99 472.92 437.03 468.34 448.41 462.54 458.23 457.2 467.44 450.55 474.02 442.92 476.91 435.57 478.4 427.02 476.03 417.53 470.37 408.1 465.49 397.6 460.19 386.37 456.16 375.14 456.83 364.26 459.48 354.27 462.77 344.37 467.83 335.47 470.58 328.13 470.05 320.99 468.6 315.54 463.47 312.28 455.37 309.29 446.7 308.54 435.96 310.44 423.95 312.55 411.93 317.03 399.83 323.28 387.86 329.57 375.47 337.55 362.58 346.7 349.51 355.8 335.92 366.08 322.59 377.05 311.02 388 301.02 399.68 294.91 411.59 294.39" stroke-dasharray="6 10" transform="rotate(49.28, 400, 400)" opacity="0.47"></path><path d="M410.48 301.13C421.37 303.9 431.36 311.18 440.03 321.35 448.63 332.43 455.81 344.71 461.2 357 466.44 368.69 469.84 380.25 471.14 391.42 472.39 402.23 471.68 413.24 468.85 424.26 466.29 435.28 462.07 445.22 456.69 453.38 451.67 461.05 445.43 466.14 438.29 467.93 431.38 468.78 423.38 466.42 414.58 461.41 405.84 457.34 396.16 452.91 385.88 449.41 375.6 449.85 365.69 451.78 356.64 454.23 347.66 458.4 339.62 460.76 333.03 460.48 326.6 459.7 321.72 455.73 318.83 448.97 316.17 441.78 315.54 432.41 317.33 421.44 319.29 410.46 323.42 398.99 329.19 387.39 334.98 375.52 342.35 363.11 350.78 350.67 359.19 338.04 368.68 325.87 378.77 315.55 388.86 306.74 399.59 301.47 410.48 301.13" stroke-dasharray="10 6" transform="rotate(52.8, 400, 400)" opacity="0.43"></path><path d="M409.22 307.87C419.09 310.29 428.11 316.68 435.9 325.69 443.64 335.64 450.09 346.89 454.92 358.33 459.64 369.48 462.72 380.58 463.91 391.25 465.08 401.67 464.49 412.03 461.96 422.02 459.65 432 455.8 440.6 450.85 447.31 446.19 453.65 440.39 457.55 433.76 458.58 427.33 459.04 419.92 456.87 411.82 452.58 403.77 449.29 394.92 445.67 385.59 442.67 376.25 442.9 367.3 444.2 359.17 445.88 347.49 450.09 330.12 448.81 325.41 441.59 323.06 435.63 322.55 427.51 324.21 417.59 326.03 407.67 329.81 396.97 335.07 385.97 340.37 374.83 347.1 363.17 354.81 351.62 362.5 340.11 371.17 329.22 380.38 320.17 389.59 312.53 399.35 308.05 409.22 307.87" stroke-dasharray="2 1" transform="rotate(56.32, 400, 400)" opacity="0.39"></path><path d="M407.84 314.61C416.69 316.7 424.75 322.22 431.69 330.08 438.6 338.85 444.34 348.94 448.63 359.36 452.85 369.71 455.62 380.11 456.72 390.06 457.8 399.88 457.31 409.47 455.08 418.41 453.01 427.34 449.53 434.73 445.03 440.22 440.76 445.46 435.43 448.46 429.35 449.02 423.42 449.3 416.63 447.45 409.25 443.92 401.92 441.35 393.9 438.47 385.5 435.93 377.09 435.99 369.09 436.75 361.85 437.74 351.47 440.82 336.13 439.56 332.03 433.5 329.98 428.54 329.57 421.51 331.1 412.65 332.76 403.78 336.18 393.99 340.93 383.81 345.73 373.59 351.81 362.92 358.77 352.46 365.73 342.21 373.57 332.67 381.87 324.9 390.18 318.4 398.98 314.65 407.84 314.61" stroke-dasharray="10 9" transform="rotate(59.84, 400, 400)" opacity="0.35"></path><path d="M406.34 321.35C414.18 323.13 421.29 327.82 427.41 334.55 433.5 342.11 438.56 350.94 442.34 360.2 446.08 369.54 448.54 379.01 449.54 388.07 450.54 397.07 450.14 405.76 448.19 413.65 444.82 424.68 432.94 437.86 425.02 439.37 419.64 439.64 413.5 438.2 406.86 435.42 400.25 433.53 393.08 431.3 385.61 429.19 378.13 429.12 371.07 429.42 364.71 429.83 355.58 431.82 342.21 430.17 338.68 424.97 336.91 420.79 336.59 414.73 337.99 406.92 339.49 399.11 342.54 390.34 346.78 381.18 351.06 372.03 356.48 362.53 362.68 353.33 368.9 344.43 375.88 336.27 383.28 329.76 390.68 324.33 398.49 321.28 406.34 321.35" stroke-dasharray="4 3" transform="rotate(63.36, 400, 400)" opacity="0.32"></path><path d="M404.75 328.09C411.59 329.57 417.78 333.48 423.09 339.11 428.38 345.46 432.77 352.99 436.06 360.99 439.32 369.14 441.49 377.5 442.38 385.51 443.29 393.52 442.98 401.19 441.3 408.04 438.36 417.56 427.84 428.54 420.8 429.81 415.99 430.17 410.52 429.18 404.64 427.12 398.79 425.83 392.47 424.17 385.92 422.45 376.3 422.25 359.83 423.16 353.56 422.46 348.35 420.9 343.74 410.14 344.88 400.76 346.21 393.99 348.9 386.33 352.61 378.33 356.36 370.38 361.12 362.19 366.55 354.36 372 346.85 378.13 340.08 384.6 334.77 391.08 330.35 397.91 327.93 404.75 328.09" stroke-dasharray="6 9" transform="rotate(66.88, 400, 400)" opacity="0.28"></path><path d="M403.09 334.83C414.77 338.18 424.15 348.73 429.8 361.84 435.38 375.72 437.29 390.3 434.41 401.94 431.83 413.57 425.24 419.76 416.65 420.45 408.31 421.67 397.67 419.52 386.44 415.71 375.2 416.35 365.46 416.13 358.94 413.71 352.57 412.34 349.64 406.06 351.76 394.56 354.13 383.05 361.08 368.77 370.39 355.68 379.76 343.77 391.41 335.39 403.09 334.83" stroke-dasharray="5 2" transform="rotate(70.4, 400, 400)" opacity="0.24"></path><path d="M401.4 341.57C411.09 344.13 418.86 352.41 423.56 362.9 428.22 374.11 429.87 386.11 427.53 395.71 425.38 405.31 419.83 410.51 412.58 411.44 405.49 412.96 396.51 411.82 387.14 408.97 373.75 408.71 358.01 400.94 358.65 388.69 360.65 379.19 366.45 367.67 374.2 357.39 382 348.1 391.7 341.76 401.4 341.57" stroke-dasharray="6 8" transform="rotate(73.92, 400, 400)" opacity="0.20"></path><path d="M399.68 348.31C407.4 350.17 413.6 356.33 417.36 364.29 421.11 372.81 422.48 382.13 420.64 389.75 416.69 399.54 399.18 404.43 388.03 402.23 377.32 401.46 364.95 393.45 365.54 383.52 367.15 375.98 371.79 367.2 377.98 359.62 384.21 352.76 391.95 348.24 399.68 348.31" stroke-dasharray="10 8" transform="rotate(77.44, 400, 400)" opacity="0.16"></path><path d="M397.96 355.05C409.5 358.51 416.5 373.1 413.75 384.43 411.28 395.75 400.37 399.18 389.08 395.49 377.77 396.11 370.19 390.61 372.43 379.38 374.92 368.14 386.42 355.63 397.96 355.05" stroke-dasharray="9 10" transform="rotate(80.96000000000001, 400, 400)" opacity="0.13"></path><path d="M396.28 361.79C392.07 382.49 384.79 365.39 396.28 361.79" stroke-dasharray="2 3" transform="rotate(84.47999999999999, 400, 400)" opacity="0.09"></path></g></svg>